# Blender v2.93.1 OBJ File: ''
# www.blender.org
o Cone
v 0.000000 -0.350000 0.000000
v 0.097545 -0.343275 0.000000
v 0.191342 -0.323358 0.000000
v 0.277785 -0.291014 0.000000
v 0.353553 -0.247487 0.000000
v 0.415735 -0.194450 0.000000
v 0.461940 -0.133939 0.000000
v 0.490393 -0.068282 0.000000
v 0.500000 0.000000 0.000000
v 0.490393 0.068282 0.000000
v 0.461940 0.133939 0.000000
v 0.415735 0.194450 0.000000
v 0.353553 0.247487 0.000000
v 0.277785 0.291014 0.000000
v 0.191342 0.323358 0.000000
v 0.097545 0.343275 -0.000000
v -0.000000 0.350000 -0.000000
v -0.097545 0.343275 -0.000000
v -0.191342 0.323358 0.000000
v -0.277785 0.291014 0.000000
v -0.353553 0.247487 0.000000
v -0.415735 0.194450 0.000000
v -0.461940 0.133939 0.000000
v -0.490393 0.068282 0.000000
v -0.500000 0.000000 0.000000
v -0.490393 -0.068282 0.000000
v -0.461940 -0.133939 0.000000
v -0.415735 -0.194449 0.000000
v -0.353553 -0.247487 0.000000
v -0.277785 -0.291014 0.000000
v -0.191342 -0.323358 0.000000
v -0.097545 -0.343275 0.000000
v 0.034662 -0.263607 -1.025599
v 0.000000 0.350000 -0.000000
v 0.000000 0.350000 1.000000
v 0.097545 0.343275 -0.000000
v 0.097545 0.343275 1.000000
v 0.191342 0.323358 0.000000
v 0.191342 0.323358 1.000000
v 0.277785 0.291014 0.000000
v 0.277785 0.291014 1.000000
v 0.353553 0.247487 0.000000
v 0.353553 0.247487 1.000000
v 0.415735 0.194450 0.000000
v 0.415735 0.194450 1.000000
v 0.461940 0.133939 0.000000
v 0.461940 0.133939 1.000000
v 0.490393 0.068282 0.000000
v 0.490393 0.068282 1.000000
v 0.500000 0.000000 0.000000
v 0.500000 -0.000000 1.000000
v 0.490393 -0.068282 0.000000
v 0.490393 -0.068282 1.000000
v 0.461940 -0.133939 0.000000
v 0.461940 -0.133939 1.000000
v 0.415735 -0.194450 0.000000
v 0.415735 -0.194450 1.000000
v 0.353553 -0.247487 0.000000
v 0.353553 -0.247487 1.000000
v 0.277785 -0.291014 0.000000
v 0.277785 -0.291014 1.000000
v 0.191342 -0.323358 0.000000
v 0.191342 -0.323358 1.000000
v 0.097545 -0.343275 -0.000000
v 0.097545 -0.343275 1.000000
v -0.000000 -0.350000 -0.000000
v -0.000000 -0.350000 1.000000
v -0.097545 -0.343275 -0.000000
v -0.097545 -0.343275 1.000000
v -0.191342 -0.323358 0.000000
v -0.191342 -0.323358 1.000000
v -0.277785 -0.291014 0.000000
v -0.277785 -0.291014 1.000000
v -0.353553 -0.247487 0.000000
v -0.353553 -0.247487 1.000000
v -0.415735 -0.194450 0.000000
v -0.415735 -0.194450 1.000000
v -0.461940 -0.133939 0.000000
v -0.461940 -0.133939 1.000000
v -0.490393 -0.068282 0.000000
v -0.490393 -0.068282 1.000000
v -0.500000 0.000000 0.000000
v -0.500000 -0.000000 1.000000
v -0.490393 0.068282 0.000000
v -0.490393 0.068282 1.000000
v -0.461940 0.133939 0.000000
v -0.461940 0.133939 1.000000
v -0.415735 0.194450 0.000000
v -0.415735 0.194449 1.000000
v -0.353553 0.247487 0.000000
v -0.353553 0.247487 1.000000
v -0.277785 0.291014 0.000000
v -0.277785 0.291014 1.000000
v -0.191342 0.323358 0.000000
v -0.191342 0.323358 1.000000
v -0.097545 0.343275 -0.000000
v -0.097545 0.343275 1.000000
vt 0.250000 0.490000
vt 0.250000 0.250000
vt 0.296822 0.485388
vt 0.341844 0.471731
vt 0.383337 0.449553
vt 0.419706 0.419706
vt 0.449553 0.383337
vt 0.471731 0.341844
vt 0.485388 0.296822
vt 0.490000 0.250000
vt 0.485388 0.203178
vt 0.471731 0.158156
vt 0.449553 0.116663
vt 0.419706 0.080294
vt 0.383337 0.050447
vt 0.341844 0.028269
vt 0.296822 0.014612
vt 0.250000 0.010000
vt 0.203178 0.014612
vt 0.158156 0.028269
vt 0.116663 0.050447
vt 0.080294 0.080294
vt 0.050447 0.116663
vt 0.028269 0.158156
vt 0.014612 0.203178
vt 0.010000 0.250000
vt 0.014612 0.296822
vt 0.028269 0.341844
vt 0.050447 0.383337
vt 0.080294 0.419706
vt 0.116663 0.449553
vt 0.158156 0.471731
vt 0.985388 0.296822
vt 0.796822 0.014612
vt 0.514612 0.203178
vt 0.203178 0.485388
vt 1.000000 1.000000
vt 0.968750 0.500000
vt 1.000000 0.500000
vt 0.968750 1.000000
vt 0.937500 0.500000
vt 0.937500 1.000000
vt 0.906250 0.500000
vt 0.906250 1.000000
vt 0.875000 0.500000
vt 0.875000 1.000000
vt 0.843750 0.500000
vt 0.843750 1.000000
vt 0.812500 0.500000
vt 0.812500 1.000000
vt 0.781250 0.500000
vt 0.781250 1.000000
vt 0.750000 0.500000
vt 0.750000 1.000000
vt 0.718750 0.500000
vt 0.718750 1.000000
vt 0.687500 0.500000
vt 0.687500 1.000000
vt 0.656250 0.500000
vt 0.656250 1.000000
vt 0.625000 0.500000
vt 0.625000 1.000000
vt 0.593750 0.500000
vt 0.593750 1.000000
vt 0.562500 0.500000
vt 0.531250 1.000000
vt 0.531250 0.500000
vt 0.500000 0.500000
vt 0.500000 1.000000
vt 0.468750 0.500000
vt 0.468750 1.000000
vt 0.437500 0.500000
vt 0.406250 1.000000
vt 0.406250 0.500000
vt 0.375000 0.500000
vt 0.375000 1.000000
vt 0.343750 0.500000
vt 0.343750 1.000000
vt 0.312500 0.500000
vt 0.312500 1.000000
vt 0.281250 0.500000
vt 0.281250 1.000000
vt 0.250000 0.500000
vt 0.250000 1.000000
vt 0.218750 0.500000
vt 0.218750 1.000000
vt 0.187500 0.500000
vt 0.187500 1.000000
vt 0.156250 0.500000
vt 0.156250 1.000000
vt 0.125000 0.500000
vt 0.125000 1.000000
vt 0.093750 0.500000
vt 0.093750 1.000000
vt 0.062500 0.500000
vt 0.158156 0.028269
vt 0.471731 0.158156
vt 0.341844 0.471731
vt 0.062500 1.000000
vt 0.031250 0.500000
vt 0.031250 1.000000
vt 0.000000 0.500000
vt 0.985388 0.296822
vt 0.796822 0.014612
vt 0.514612 0.203178
vt 0.703178 0.485388
vt 0.750000 0.490000
vt 0.796822 0.485388
vt 0.841844 0.471731
vt 0.883337 0.449553
vt 0.919706 0.419706
vt 0.949553 0.383337
vt 0.971731 0.341844
vt 0.990000 0.250000
vt 0.985388 0.203178
vt 0.971731 0.158156
vt 0.949553 0.116663
vt 0.919706 0.080294
vt 0.883337 0.050447
vt 0.841844 0.028269
vt 0.750000 0.010000
vt 0.703178 0.014612
vt 0.658156 0.028269
vt 0.616663 0.050447
vt 0.580294 0.080294
vt 0.550447 0.116663
vt 0.528269 0.158156
vt 0.510000 0.250000
vt 0.514612 0.296822
vt 0.528269 0.341844
vt 0.550447 0.383337
vt 0.580294 0.419706
vt 0.616663 0.449553
vt 0.658156 0.471731
vt 0.562500 1.000000
vt 0.437500 1.000000
vt 0.296822 0.485388
vt 0.250000 0.490000
vt 0.203178 0.485388
vt 0.158156 0.471731
vt 0.116663 0.449553
vt 0.028269 0.341844
vt 0.080294 0.419706
vt 0.050447 0.383337
vt 0.014612 0.296822
vt 0.010000 0.250000
vt 0.014612 0.203178
vt 0.028269 0.158156
vt 0.050447 0.116663
vt 0.080294 0.080294
vt 0.116663 0.050447
vt 0.203178 0.014612
vt 0.250000 0.010000
vt 0.296822 0.014612
vt 0.341844 0.028269
vt 0.383337 0.050447
vt 0.419706 0.080294
vt 0.449553 0.116663
vt 0.485388 0.203178
vt 0.471731 0.341844
vt 0.490000 0.250000
vt 0.485388 0.296822
vt 0.449553 0.383337
vt 0.419706 0.419706
vt 0.383337 0.449553
vt 0.000000 1.000000
vt 0.703178 0.485388
vt 0.750000 0.490000
vt 0.796822 0.485388
vt 0.841844 0.471731
vt 0.883337 0.449553
vt 0.919706 0.419706
vt 0.949553 0.383337
vt 0.971731 0.341844
vt 0.990000 0.250000
vt 0.985388 0.203178
vt 0.971731 0.158156
vt 0.949553 0.116663
vt 0.919706 0.080294
vt 0.883337 0.050447
vt 0.841844 0.028269
vt 0.750000 0.010000
vt 0.703178 0.014612
vt 0.658156 0.028269
vt 0.616663 0.050447
vt 0.580294 0.080294
vt 0.550447 0.116663
vt 0.528269 0.158156
vt 0.510000 0.250000
vt 0.514612 0.296822
vt 0.528269 0.341844
vt 0.550447 0.383337
vt 0.580294 0.419706
vt 0.616663 0.449553
vt 0.658156 0.471731
vn -0.0015 -0.9965 -0.0840
vn 0.0269 -0.2257 -0.9738
vn 0.1403 -0.9864 -0.0852
vn 0.2843 -0.9536 -0.0990
vn 0.4315 -0.8933 -0.1262
vn 0.5796 -0.7974 -0.1677
vn 0.7203 -0.6567 -0.2233
vn 0.8362 -0.4658 -0.2895
vn 0.9044 -0.2326 -0.3576
vn 0.9088 0.0176 -0.4169
vn 0.8514 0.2522 -0.4599
vn 0.7502 0.4481 -0.4862
vn 0.6265 0.5980 -0.4999
vn 0.4957 0.7059 -0.5059
vn 0.3661 0.7795 -0.5083
vn 0.2404 0.8262 -0.5096
vn 0.1185 0.8514 -0.5110
vn -0.0011 0.8581 -0.5134
vn -0.1201 0.8475 -0.5170
vn -0.2404 0.8187 -0.5215
vn -0.3634 0.7687 -0.5264
vn -0.4891 0.6925 -0.5303
vn -0.6146 0.5837 -0.5306
vn -0.7326 0.4352 -0.5234
vn -0.8289 0.2440 -0.5033
vn -0.8849 0.0166 -0.4656
vn -0.8838 -0.2267 -0.4093
vn -0.8222 -0.4562 -0.3404
vn -0.7132 -0.6471 -0.2695
vn -0.5775 -0.7899 -0.2062
vn -0.4322 -0.8883 -0.1554
vn -0.2864 -0.9507 -0.1185
vn -0.0000 0.0000 1.0000
vn -0.1430 -0.9852 -0.0950
vn -0.0000 1.0000 0.0000
vn 0.1386 0.9904 0.0000
vn 0.2798 0.9600 0.0000
vn 0.4257 0.9049 0.0000
vn 0.5760 0.8175 0.0000
vn 0.7260 0.6877 0.0000
vn 0.8625 0.5060 0.0000
vn 0.9626 0.2709 0.0000
vn 1.0000 -0.0000 -0.0000
vn 0.9626 -0.2709 -0.0000
vn 0.8625 -0.5060 -0.0000
vn 0.7260 -0.6877 -0.0000
vn 0.5760 -0.8175 -0.0000
vn 0.4257 -0.9049 -0.0000
vn 0.2798 -0.9600 -0.0000
vn 0.1386 -0.9904 -0.0000
vn -0.0000 -1.0000 -0.0000
vn -0.1386 -0.9904 -0.0000
vn -0.2798 -0.9600 -0.0000
vn -0.4257 -0.9049 -0.0000
vn -0.5760 -0.8175 -0.0000
vn -0.7260 -0.6877 -0.0000
vn -0.8625 -0.5060 -0.0000
vn -0.9626 -0.2709 -0.0000
vn -1.0000 0.0000 -0.0000
vn -0.9626 0.2709 0.0000
vn -0.8625 0.5060 0.0000
vn -0.7260 0.6877 0.0000
vn -0.5760 0.8175 0.0000
vn -0.4257 0.9049 0.0000
vn -0.2798 0.9600 0.0000
vn -0.1386 0.9904 0.0000
vn 0.0000 0.0000 -1.0000
s 1
f 1/1/1 33/2/2 2/3/3
f 2/3/3 33/2/2 3/4/4
f 3/4/4 33/2/2 4/5/5
f 4/5/5 33/2/2 5/6/6
f 5/6/6 33/2/2 6/7/7
f 6/7/7 33/2/2 7/8/8
f 7/8/8 33/2/2 8/9/9
f 8/9/9 33/2/2 9/10/10
f 9/10/10 33/2/2 10/11/11
f 10/11/11 33/2/2 11/12/12
f 11/12/12 33/2/2 12/13/13
f 12/13/13 33/2/2 13/14/14
f 13/14/14 33/2/2 14/15/15
f 14/15/15 33/2/2 15/16/16
f 15/16/16 33/2/2 16/17/17
f 16/17/17 33/2/2 17/18/18
f 17/18/18 33/2/2 18/19/19
f 18/19/19 33/2/2 19/20/20
f 19/20/20 33/2/2 20/21/21
f 20/21/21 33/2/2 21/22/22
f 21/22/22 33/2/2 22/23/23
f 22/23/23 33/2/2 23/24/24
f 23/24/24 33/2/2 24/25/25
f 24/25/25 33/2/2 25/26/26
f 25/26/26 33/2/2 26/27/27
f 26/27/27 33/2/2 27/28/28
f 27/28/28 33/2/2 28/29/29
f 28/29/29 33/2/2 29/30/30
f 29/30/30 33/2/2 30/31/31
f 30/31/31 33/2/2 31/32/32
f 8/33/33 16/34/33 24/35/33
f 31/32/32 33/2/2 32/36/34
f 32/36/34 33/2/2 1/1/1
f 35/37/35 36/38/36 34/39/35
f 37/40/36 38/41/37 36/38/36
f 39/42/37 40/43/38 38/41/37
f 41/44/38 42/45/39 40/43/38
f 43/46/39 44/47/40 42/45/39
f 45/48/40 46/49/41 44/47/40
f 47/50/41 48/51/42 46/49/41
f 49/52/42 50/53/43 48/51/42
f 51/54/43 52/55/44 50/53/43
f 53/56/44 54/57/45 52/55/44
f 55/58/45 56/59/46 54/57/45
f 57/60/46 58/61/47 56/59/46
f 59/62/47 60/63/48 58/61/47
f 61/64/48 62/65/49 60/63/48
f 62/65/49 65/66/50 64/67/50
f 65/66/50 66/68/51 64/67/50
f 67/69/51 68/70/52 66/68/51
f 69/71/52 70/72/53 68/70/52
f 70/72/53 73/73/54 72/74/54
f 73/73/54 74/75/55 72/74/54
f 75/76/55 76/77/56 74/75/55
f 77/78/56 78/79/57 76/77/56
f 79/80/57 80/81/58 78/79/57
f 81/82/58 82/83/59 80/81/58
f 83/84/59 84/85/60 82/83/59
f 85/86/60 86/87/61 84/85/60
f 87/88/61 88/89/62 86/87/61
f 89/90/62 90/91/63 88/89/62
f 91/92/63 92/93/64 90/91/63
f 93/94/64 94/95/65 92/93/64
f 71/96/33 55/97/33 39/98/33
f 95/99/65 96/100/66 94/95/65
f 97/101/66 34/102/35 96/100/66
f 48/103/67 64/104/67 80/105/67
f 32/106/33 1/107/33 2/108/33
f 2/108/33 3/109/33 4/110/33
f 4/110/33 5/111/33 6/112/33
f 6/112/33 7/113/33 8/33/33
f 8/33/33 9/114/33 10/115/33
f 10/115/33 11/116/33 12/117/33
f 12/117/33 13/118/33 14/119/33
f 14/119/33 15/120/33 16/34/33
f 16/34/33 17/121/33 18/122/33
f 18/122/33 19/123/33 20/124/33
f 20/124/33 21/125/33 22/126/33
f 22/126/33 23/127/33 24/35/33
f 24/35/33 25/128/33 26/129/33
f 26/129/33 27/130/33 24/35/33
f 27/130/33 28/131/33 24/35/33
f 28/131/33 29/132/33 30/133/33
f 30/133/33 31/134/33 28/131/33
f 31/134/33 32/106/33 28/131/33
f 32/106/33 2/108/33 8/33/33
f 2/108/33 4/110/33 8/33/33
f 4/110/33 6/112/33 8/33/33
f 8/33/33 10/115/33 12/117/33
f 12/117/33 14/119/33 8/33/33
f 14/119/33 16/34/33 8/33/33
f 16/34/33 18/122/33 24/35/33
f 18/122/33 20/124/33 24/35/33
f 20/124/33 22/126/33 24/35/33
f 24/35/33 28/131/33 32/106/33
f 32/106/33 8/33/33 24/35/33
f 35/37/35 37/40/36 36/38/36
f 37/40/36 39/42/37 38/41/37
f 39/42/37 41/44/38 40/43/38
f 41/44/38 43/46/39 42/45/39
f 43/46/39 45/48/40 44/47/40
f 45/48/40 47/50/41 46/49/41
f 47/50/41 49/52/42 48/51/42
f 49/52/42 51/54/43 50/53/43
f 51/54/43 53/56/44 52/55/44
f 53/56/44 55/58/45 54/57/45
f 55/58/45 57/60/46 56/59/46
f 57/60/46 59/62/47 58/61/47
f 59/62/47 61/64/48 60/63/48
f 61/64/48 63/135/49 62/65/49
f 62/65/49 63/135/49 65/66/50
f 65/66/50 67/69/51 66/68/51
f 67/69/51 69/71/52 68/70/52
f 69/71/52 71/136/53 70/72/53
f 70/72/53 71/136/53 73/73/54
f 73/73/54 75/76/55 74/75/55
f 75/76/55 77/78/56 76/77/56
f 77/78/56 79/80/57 78/79/57
f 79/80/57 81/82/58 80/81/58
f 81/82/58 83/84/59 82/83/59
f 83/84/59 85/86/60 84/85/60
f 85/86/60 87/88/61 86/87/61
f 87/88/61 89/90/62 88/89/62
f 89/90/62 91/92/63 90/91/63
f 91/92/63 93/94/64 92/93/64
f 93/94/64 95/99/65 94/95/65
f 39/98/33 37/137/33 35/138/33
f 35/138/33 97/139/33 39/98/33
f 97/139/33 95/140/33 39/98/33
f 95/140/33 93/141/33 87/142/33
f 93/141/33 91/143/33 87/142/33
f 91/143/33 89/144/33 87/142/33
f 87/142/33 85/145/33 83/146/33
f 83/146/33 81/147/33 87/142/33
f 81/147/33 79/148/33 87/142/33
f 79/148/33 77/149/33 71/96/33
f 77/149/33 75/150/33 71/96/33
f 75/150/33 73/151/33 71/96/33
f 71/96/33 69/152/33 67/153/33
f 67/153/33 65/154/33 63/155/33
f 63/155/33 61/156/33 59/157/33
f 59/157/33 57/158/33 55/97/33
f 55/97/33 53/159/33 47/160/33
f 53/159/33 51/161/33 47/160/33
f 51/161/33 49/162/33 47/160/33
f 47/160/33 45/163/33 39/98/33
f 45/163/33 43/164/33 39/98/33
f 43/164/33 41/165/33 39/98/33
f 71/96/33 67/153/33 63/155/33
f 63/155/33 59/157/33 55/97/33
f 39/98/33 95/140/33 87/142/33
f 87/142/33 79/148/33 71/96/33
f 71/96/33 63/155/33 55/97/33
f 55/97/33 47/160/33 39/98/33
f 39/98/33 87/142/33 71/96/33
f 95/99/65 97/101/66 96/100/66
f 97/101/66 35/166/35 34/102/35
f 96/167/67 34/168/67 36/169/67
f 36/169/67 38/170/67 96/167/67
f 38/170/67 40/171/67 96/167/67
f 40/171/67 42/172/67 48/103/67
f 42/172/67 44/173/67 48/103/67
f 44/173/67 46/174/67 48/103/67
f 48/103/67 50/175/67 52/176/67
f 52/176/67 54/177/67 56/178/67
f 56/178/67 58/179/67 60/180/67
f 60/180/67 62/181/67 56/178/67
f 62/181/67 64/104/67 56/178/67
f 64/104/67 66/182/67 68/183/67
f 68/183/67 70/184/67 64/104/67
f 70/184/67 72/185/67 64/104/67
f 72/185/67 74/186/67 76/187/67
f 76/187/67 78/188/67 80/105/67
f 80/105/67 82/189/67 84/190/67
f 84/190/67 86/191/67 80/105/67
f 86/191/67 88/192/67 80/105/67
f 88/192/67 90/193/67 92/194/67
f 92/194/67 94/195/67 88/192/67
f 94/195/67 96/167/67 88/192/67
f 48/103/67 52/176/67 64/104/67
f 52/176/67 56/178/67 64/104/67
f 72/185/67 76/187/67 64/104/67
f 76/187/67 80/105/67 64/104/67
f 96/167/67 40/171/67 48/103/67
f 80/105/67 88/192/67 96/167/67
f 96/167/67 48/103/67 80/105/67
